# xmcd CD database file
#
# Track frame offsets:
#	150
#	13273
#	24763
#	36483
#	50689
#	62670
#	74387
#	85036
#	96559
#	108805
#	118648
#	125793
#	136430
#	212536
#
# Disc length: 3712 seconds
#
# Revision: 0
# Processed by: cddbd v1.5.2PL0 Copyright (c) Steve Scherf et al.
# Submitted via: CDex 1.51
#
DISCID=c80e7e0e
DTITLE=Ken Nordine - Love Words - Concert in the Sky
DYEAR=1900
DGENRE=Jazz
TTITLE0=All the Things You Are
TTITLE1=Midnight Sun
TTITLE2=You Do Something to Me
TTITLE3=These Foolish Things
TTITLE4=All of You
TTITLE5=I'll Be Seeing You
TTITLE6=I'm Glad There Is You
TTITLE7=The Touch of Your Lips
TTITLE8=My Funny Valentine
TTITLE9=Don't Take Your Love From Me
TTITLE10=When I'm With You
TTITLE11=There Will Never Be Another You
TTITLE12=Side 1
TTITLE13=Side 2
EXTD=
EXTT0=
EXTT1=
EXTT2=
EXTT3=
EXTT4=
EXTT5=
EXTT6=
EXTT7=
EXTT8=
EXTT9=
EXTT10=
EXTT11=
EXTT12=
EXTT13=
PLAYORDER=
